<mxfile host="Electron" modified="2024-06-06T22:23:51.152Z" agent="Mozilla/5.0 (Windows NT 10.0; Win64; x64) AppleWebKit/537.36 (KHTML, like Gecko) draw.io/21.3.7 Chrome/112.0.5615.204 Electron/24.5.0 Safari/537.36" etag="Vc_J80mEukg72TJRb8sK" version="21.3.7" type="device">
  <diagram name="Мой вариант" id="pvtpCN0AOn_V2WJp_O1I">
    <mxGraphModel dx="1771" dy="1025" grid="1" gridSize="10" guides="1" tooltips="1" connect="1" arrows="1" fold="1" page="1" pageScale="1" pageWidth="850" pageHeight="1100" math="0" shadow="0">
      <root>
        <mxCell id="CRoKaNGZ9nIs0wApv7u6-0" />
        <mxCell id="CRoKaNGZ9nIs0wApv7u6-1" parent="CRoKaNGZ9nIs0wApv7u6-0" />
        <mxCell id="nXjiOFzCeSzCIaUZXeVF-9" style="edgeStyle=orthogonalEdgeStyle;rounded=0;orthogonalLoop=1;jettySize=auto;html=1;entryX=0.5;entryY=0;entryDx=0;entryDy=0;entryPerimeter=0;" parent="CRoKaNGZ9nIs0wApv7u6-1" source="dYzpMSAWDg4H9lxUtFjr-1" target="dYzpMSAWDg4H9lxUtFjr-8" edge="1">
          <mxGeometry relative="1" as="geometry">
            <Array as="points">
              <mxPoint x="830" y="220" />
              <mxPoint x="590" y="220" />
            </Array>
          </mxGeometry>
        </mxCell>
        <mxCell id="nXjiOFzCeSzCIaUZXeVF-10" value="Просмотр информации&amp;nbsp;" style="edgeLabel;html=1;align=center;verticalAlign=middle;resizable=0;points=[];" parent="nXjiOFzCeSzCIaUZXeVF-9" vertex="1" connectable="0">
          <mxGeometry x="0.3389" y="-2" relative="1" as="geometry">
            <mxPoint x="61" y="-18" as="offset" />
          </mxGeometry>
        </mxCell>
        <mxCell id="nXjiOFzCeSzCIaUZXeVF-11" style="edgeStyle=orthogonalEdgeStyle;rounded=0;orthogonalLoop=1;jettySize=auto;html=1;" parent="CRoKaNGZ9nIs0wApv7u6-1" source="dYzpMSAWDg4H9lxUtFjr-1" edge="1">
          <mxGeometry relative="1" as="geometry">
            <mxPoint x="870" y="280" as="targetPoint" />
          </mxGeometry>
        </mxCell>
        <mxCell id="nXjiOFzCeSzCIaUZXeVF-12" style="edgeStyle=orthogonalEdgeStyle;rounded=0;orthogonalLoop=1;jettySize=auto;html=1;entryX=0.5;entryY=0;entryDx=0;entryDy=0;entryPerimeter=0;" parent="CRoKaNGZ9nIs0wApv7u6-1" source="dYzpMSAWDg4H9lxUtFjr-1" target="dYzpMSAWDg4H9lxUtFjr-6" edge="1">
          <mxGeometry relative="1" as="geometry">
            <Array as="points">
              <mxPoint x="870" y="220" />
              <mxPoint x="1150" y="220" />
            </Array>
          </mxGeometry>
        </mxCell>
        <mxCell id="nXjiOFzCeSzCIaUZXeVF-13" value="Использование сервиса" style="edgeLabel;html=1;align=center;verticalAlign=middle;resizable=0;points=[];" parent="nXjiOFzCeSzCIaUZXeVF-12" vertex="1" connectable="0">
          <mxGeometry x="-0.5684" relative="1" as="geometry">
            <mxPoint x="28" y="-20" as="offset" />
          </mxGeometry>
        </mxCell>
        <mxCell id="nXjiOFzCeSzCIaUZXeVF-14" value="Использование сервиса" style="edgeLabel;html=1;align=center;verticalAlign=middle;resizable=0;points=[];" parent="nXjiOFzCeSzCIaUZXeVF-12" vertex="1" connectable="0">
          <mxGeometry x="-0.5684" relative="1" as="geometry">
            <mxPoint x="498" y="-20" as="offset" />
          </mxGeometry>
        </mxCell>
        <object placeholders="1" c4Name="Client" c4Type="Person" c4Description="Клиент ресторана" label="&lt;font style=&quot;font-size: 16px&quot;&gt;&lt;b&gt;%c4Name%&lt;/b&gt;&lt;/font&gt;&lt;div&gt;[%c4Type%]&lt;/div&gt;&lt;br&gt;&lt;div&gt;&lt;font style=&quot;font-size: 11px&quot;&gt;&lt;font color=&quot;#cccccc&quot;&gt;%c4Description%&lt;/font&gt;&lt;/div&gt;" id="dYzpMSAWDg4H9lxUtFjr-1">
          <mxCell style="html=1;fontSize=11;dashed=0;whiteSpace=wrap;fillColor=#6C6477;strokeColor=#4D4D4D;fontColor=#ffffff;shape=mxgraph.c4.person2;align=center;metaEdit=1;points=[[0.5,0,0],[1,0.5,0],[1,0.75,0],[0.75,1,0],[0.5,1,0],[0.25,1,0],[0,0.75,0],[0,0.5,0]];resizable=0;" parent="CRoKaNGZ9nIs0wApv7u6-1" vertex="1">
            <mxGeometry x="770" width="200" height="180" as="geometry" />
          </mxCell>
        </object>
        <mxCell id="nXjiOFzCeSzCIaUZXeVF-16" style="edgeStyle=orthogonalEdgeStyle;rounded=0;orthogonalLoop=1;jettySize=auto;html=1;entryX=0.5;entryY=0;entryDx=0;entryDy=0;entryPerimeter=0;" parent="CRoKaNGZ9nIs0wApv7u6-1" source="dYzpMSAWDg4H9lxUtFjr-2" target="dYzpMSAWDg4H9lxUtFjr-10" edge="1">
          <mxGeometry relative="1" as="geometry">
            <Array as="points">
              <mxPoint x="870" y="430" />
              <mxPoint x="1150" y="430" />
            </Array>
          </mxGeometry>
        </mxCell>
        <mxCell id="dCxOR9dJm48hW4rspXvm-1" style="edgeStyle=orthogonalEdgeStyle;rounded=0;orthogonalLoop=1;jettySize=auto;html=1;entryX=1;entryY=0.5;entryDx=0;entryDy=0;entryPerimeter=0;" parent="CRoKaNGZ9nIs0wApv7u6-1" source="dYzpMSAWDg4H9lxUtFjr-2" target="dCxOR9dJm48hW4rspXvm-0" edge="1">
          <mxGeometry relative="1" as="geometry">
            <Array as="points">
              <mxPoint x="840" y="450" />
              <mxPoint x="2020" y="450" />
              <mxPoint x="2020" y="1240" />
            </Array>
          </mxGeometry>
        </mxCell>
        <object placeholders="1" c4Name="MobileApp" c4Type="Container" c4Technology="Flutter" c4Description="Мобильное приложение" label="&lt;font style=&quot;font-size: 16px&quot;&gt;&lt;b&gt;%c4Name%&lt;/b&gt;&lt;/font&gt;&lt;div&gt;[%c4Type%: %c4Technology%]&lt;/div&gt;&lt;br&gt;&lt;div&gt;&lt;font style=&quot;font-size: 11px&quot;&gt;&lt;font color=&quot;#E6E6E6&quot;&gt;%c4Description%&lt;/font&gt;&lt;/div&gt;" id="dYzpMSAWDg4H9lxUtFjr-2">
          <mxCell style="rounded=1;whiteSpace=wrap;html=1;fontSize=11;labelBackgroundColor=none;fillColor=#23A2D9;fontColor=#ffffff;align=center;arcSize=10;strokeColor=#0E7DAD;metaEdit=1;resizable=0;points=[[0.25,0,0],[0.5,0,0],[0.75,0,0],[1,0.25,0],[1,0.5,0],[1,0.75,0],[0.75,1,0],[0.5,1,0],[0.25,1,0],[0,0.75,0],[0,0.5,0],[0,0.25,0]];" parent="CRoKaNGZ9nIs0wApv7u6-1" vertex="1">
            <mxGeometry x="750" y="280" width="240" height="120" as="geometry" />
          </mxCell>
        </object>
        <mxCell id="nXjiOFzCeSzCIaUZXeVF-3" style="edgeStyle=orthogonalEdgeStyle;rounded=0;orthogonalLoop=1;jettySize=auto;html=1;entryX=0.5;entryY=0;entryDx=0;entryDy=0;entryPerimeter=0;" parent="CRoKaNGZ9nIs0wApv7u6-1" source="dYzpMSAWDg4H9lxUtFjr-4" target="dYzpMSAWDg4H9lxUtFjr-5" edge="1">
          <mxGeometry relative="1" as="geometry" />
        </mxCell>
        <object placeholders="1" c4Name="User" c4Type="Person" c4Description="Пользователь системы" label="&lt;font style=&quot;font-size: 16px&quot;&gt;&lt;b&gt;%c4Name%&lt;/b&gt;&lt;/font&gt;&lt;div&gt;[%c4Type%]&lt;/div&gt;&lt;br&gt;&lt;div&gt;&lt;font style=&quot;font-size: 11px&quot;&gt;&lt;font color=&quot;#cccccc&quot;&gt;%c4Description%&lt;/font&gt;&lt;/div&gt;" id="dYzpMSAWDg4H9lxUtFjr-4">
          <mxCell style="html=1;fontSize=11;dashed=0;whiteSpace=wrap;fillColor=#083F75;strokeColor=#06315C;fontColor=#ffffff;shape=mxgraph.c4.person2;align=center;metaEdit=1;points=[[0.5,0,0],[1,0.5,0],[1,0.75,0],[0.75,1,0],[0.5,1,0],[0.25,1,0],[0,0.75,0],[0,0.5,0]];resizable=0;" parent="CRoKaNGZ9nIs0wApv7u6-1" vertex="1">
            <mxGeometry x="1330" width="200" height="180" as="geometry" />
          </mxCell>
        </object>
        <mxCell id="nXjiOFzCeSzCIaUZXeVF-7" style="edgeStyle=orthogonalEdgeStyle;rounded=0;orthogonalLoop=1;jettySize=auto;html=1;entryX=0.5;entryY=0;entryDx=0;entryDy=0;entryPerimeter=0;" parent="CRoKaNGZ9nIs0wApv7u6-1" source="dYzpMSAWDg4H9lxUtFjr-5" target="dYzpMSAWDg4H9lxUtFjr-10" edge="1">
          <mxGeometry relative="1" as="geometry">
            <Array as="points">
              <mxPoint x="1430" y="430" />
              <mxPoint x="1150" y="430" />
            </Array>
          </mxGeometry>
        </mxCell>
        <mxCell id="dCxOR9dJm48hW4rspXvm-3" style="edgeStyle=orthogonalEdgeStyle;rounded=0;orthogonalLoop=1;jettySize=auto;html=1;" parent="CRoKaNGZ9nIs0wApv7u6-1" source="dYzpMSAWDg4H9lxUtFjr-5" target="dCxOR9dJm48hW4rspXvm-0" edge="1">
          <mxGeometry relative="1" as="geometry">
            <Array as="points">
              <mxPoint x="1460" y="450" />
              <mxPoint x="2020" y="450" />
              <mxPoint x="2020" y="1240" />
            </Array>
          </mxGeometry>
        </mxCell>
        <object placeholders="1" c4Name="WebApp" c4Type="Container" c4Technology="React" c4Description="Веб-интерфейс системы" label="&lt;font style=&quot;font-size: 16px&quot;&gt;&lt;b&gt;%c4Name%&lt;/b&gt;&lt;/font&gt;&lt;div&gt;[%c4Type%: %c4Technology%]&lt;/div&gt;&lt;br&gt;&lt;div&gt;&lt;font style=&quot;font-size: 11px&quot;&gt;&lt;font color=&quot;#E6E6E6&quot;&gt;%c4Description%&lt;/font&gt;&lt;/div&gt;" id="dYzpMSAWDg4H9lxUtFjr-5">
          <mxCell style="rounded=1;whiteSpace=wrap;html=1;fontSize=11;labelBackgroundColor=none;fillColor=#23A2D9;fontColor=#ffffff;align=center;arcSize=10;strokeColor=#0E7DAD;metaEdit=1;resizable=0;points=[[0.25,0,0],[0.5,0,0],[0.75,0,0],[1,0.25,0],[1,0.5,0],[1,0.75,0],[0.75,1,0],[0.5,1,0],[0.25,1,0],[0,0.75,0],[0,0.5,0],[0,0.25,0]];" parent="CRoKaNGZ9nIs0wApv7u6-1" vertex="1">
            <mxGeometry x="1310" y="280" width="240" height="120" as="geometry" />
          </mxCell>
        </object>
        <mxCell id="nXjiOFzCeSzCIaUZXeVF-15" value="Перенаправляет запросы &lt;br&gt;[HTTPS]" style="edgeStyle=orthogonalEdgeStyle;rounded=0;orthogonalLoop=1;jettySize=auto;html=1;entryX=0.5;entryY=0;entryDx=0;entryDy=0;entryPerimeter=0;" parent="CRoKaNGZ9nIs0wApv7u6-1" source="dYzpMSAWDg4H9lxUtFjr-6" target="dYzpMSAWDg4H9lxUtFjr-10" edge="1">
          <mxGeometry x="0.3333" relative="1" as="geometry">
            <Array as="points">
              <mxPoint x="1150" y="490" />
              <mxPoint x="1150" y="490" />
            </Array>
            <mxPoint as="offset" />
          </mxGeometry>
        </mxCell>
        <mxCell id="dCxOR9dJm48hW4rspXvm-2" style="edgeStyle=orthogonalEdgeStyle;rounded=0;orthogonalLoop=1;jettySize=auto;html=1;entryX=0.5;entryY=0;entryDx=0;entryDy=0;entryPerimeter=0;" parent="CRoKaNGZ9nIs0wApv7u6-1" source="dYzpMSAWDg4H9lxUtFjr-6" target="dCxOR9dJm48hW4rspXvm-0" edge="1">
          <mxGeometry relative="1" as="geometry">
            <Array as="points">
              <mxPoint x="1150" y="450" />
              <mxPoint x="2020" y="450" />
              <mxPoint x="2020" y="1240" />
              <mxPoint x="1480" y="1240" />
            </Array>
          </mxGeometry>
        </mxCell>
        <object placeholders="1" c4Name="KioskApp" c4Type="Container" c4Technology="Java Spring Boot" c4Description="Киоск самообслуживания в зале, приемка заказов клиентов" label="&lt;font style=&quot;font-size: 16px&quot;&gt;&lt;b&gt;%c4Name%&lt;/b&gt;&lt;/font&gt;&lt;div&gt;[%c4Type%: %c4Technology%]&lt;/div&gt;&lt;br&gt;&lt;div&gt;&lt;font style=&quot;font-size: 11px&quot;&gt;&lt;font color=&quot;#E6E6E6&quot;&gt;%c4Description%&lt;/font&gt;&lt;/div&gt;" id="dYzpMSAWDg4H9lxUtFjr-6">
          <mxCell style="rounded=1;whiteSpace=wrap;html=1;fontSize=11;labelBackgroundColor=none;fillColor=#23A2D9;fontColor=#ffffff;align=center;arcSize=10;strokeColor=#0E7DAD;metaEdit=1;resizable=0;points=[[0.25,0,0],[0.5,0,0],[0.75,0,0],[1,0.25,0],[1,0.5,0],[1,0.75,0],[0.75,1,0],[0.5,1,0],[0.25,1,0],[0,0.75,0],[0,0.5,0],[0,0.25,0]];" parent="CRoKaNGZ9nIs0wApv7u6-1" vertex="1">
            <mxGeometry x="1030" y="280" width="240" height="120" as="geometry" />
          </mxCell>
        </object>
        <mxCell id="HPRBRbmrhmFyrZqo4h2j-3" value="Регистрация кассовых чеков&lt;br&gt;[TCP/IP]" style="edgeStyle=orthogonalEdgeStyle;rounded=0;orthogonalLoop=1;jettySize=auto;html=1;entryX=0.5;entryY=0;entryDx=0;entryDy=0;entryPerimeter=0;" parent="CRoKaNGZ9nIs0wApv7u6-1" source="dYzpMSAWDg4H9lxUtFjr-10" target="nXjiOFzCeSzCIaUZXeVF-42" edge="1">
          <mxGeometry x="-0.2" y="100" relative="1" as="geometry">
            <Array as="points">
              <mxPoint x="1150" y="720" />
              <mxPoint x="1150" y="720" />
            </Array>
            <mxPoint as="offset" />
          </mxGeometry>
        </mxCell>
        <mxCell id="HPRBRbmrhmFyrZqo4h2j-4" style="edgeStyle=orthogonalEdgeStyle;rounded=0;orthogonalLoop=1;jettySize=auto;html=1;" parent="CRoKaNGZ9nIs0wApv7u6-1" source="dYzpMSAWDg4H9lxUtFjr-10" target="nXjiOFzCeSzCIaUZXeVF-50" edge="1">
          <mxGeometry relative="1" as="geometry">
            <Array as="points">
              <mxPoint x="1150" y="680" />
              <mxPoint x="1490" y="680" />
            </Array>
          </mxGeometry>
        </mxCell>
        <mxCell id="HPRBRbmrhmFyrZqo4h2j-30" value="Управление меню" style="edgeLabel;html=1;align=center;verticalAlign=middle;resizable=0;points=[];" parent="HPRBRbmrhmFyrZqo4h2j-4" vertex="1" connectable="0">
          <mxGeometry x="0.7275" y="-1" relative="1" as="geometry">
            <mxPoint x="-19" y="16" as="offset" />
          </mxGeometry>
        </mxCell>
        <mxCell id="HPRBRbmrhmFyrZqo4h2j-32" value="Управление акциями" style="edgeLabel;html=1;align=center;verticalAlign=middle;resizable=0;points=[];" parent="HPRBRbmrhmFyrZqo4h2j-4" vertex="1" connectable="0">
          <mxGeometry x="0.7275" y="-1" relative="1" as="geometry">
            <mxPoint x="331" y="16" as="offset" />
          </mxGeometry>
        </mxCell>
        <mxCell id="HPRBRbmrhmFyrZqo4h2j-5" style="edgeStyle=orthogonalEdgeStyle;rounded=0;orthogonalLoop=1;jettySize=auto;html=1;entryX=0.5;entryY=0;entryDx=0;entryDy=0;entryPerimeter=0;" parent="CRoKaNGZ9nIs0wApv7u6-1" source="dYzpMSAWDg4H9lxUtFjr-10" edge="1">
          <mxGeometry relative="1" as="geometry">
            <mxPoint x="1830" y="790" as="targetPoint" />
            <Array as="points">
              <mxPoint x="1150" y="680" />
              <mxPoint x="1831" y="680" />
              <mxPoint x="1831" y="770" />
            </Array>
          </mxGeometry>
        </mxCell>
        <mxCell id="HPRBRbmrhmFyrZqo4h2j-9" style="edgeStyle=orthogonalEdgeStyle;rounded=0;orthogonalLoop=1;jettySize=auto;html=1;entryX=0.5;entryY=0;entryDx=0;entryDy=0;entryPerimeter=0;" parent="CRoKaNGZ9nIs0wApv7u6-1" source="dYzpMSAWDg4H9lxUtFjr-10" edge="1">
          <mxGeometry relative="1" as="geometry">
            <Array as="points">
              <mxPoint x="1150" y="680" />
              <mxPoint x="810" y="680" />
            </Array>
            <mxPoint x="810" y="790" as="targetPoint" />
          </mxGeometry>
        </mxCell>
        <mxCell id="HPRBRbmrhmFyrZqo4h2j-10" style="edgeStyle=orthogonalEdgeStyle;rounded=0;orthogonalLoop=1;jettySize=auto;html=1;" parent="CRoKaNGZ9nIs0wApv7u6-1" source="dYzpMSAWDg4H9lxUtFjr-10" target="nXjiOFzCeSzCIaUZXeVF-26" edge="1">
          <mxGeometry relative="1" as="geometry">
            <Array as="points">
              <mxPoint x="1150" y="680" />
              <mxPoint x="480" y="680" />
            </Array>
          </mxGeometry>
        </mxCell>
        <mxCell id="HPRBRbmrhmFyrZqo4h2j-11" style="edgeStyle=orthogonalEdgeStyle;rounded=0;orthogonalLoop=1;jettySize=auto;html=1;" parent="CRoKaNGZ9nIs0wApv7u6-1" source="dYzpMSAWDg4H9lxUtFjr-10" target="nXjiOFzCeSzCIaUZXeVF-17" edge="1">
          <mxGeometry relative="1" as="geometry">
            <Array as="points">
              <mxPoint x="1150" y="680" />
              <mxPoint x="210" y="680" />
              <mxPoint x="210" y="850" />
            </Array>
          </mxGeometry>
        </mxCell>
        <mxCell id="HPRBRbmrhmFyrZqo4h2j-35" value="Оформление заказов" style="edgeLabel;html=1;align=center;verticalAlign=middle;resizable=0;points=[];" parent="HPRBRbmrhmFyrZqo4h2j-11" vertex="1" connectable="0">
          <mxGeometry x="0.8441" relative="1" as="geometry">
            <mxPoint x="214" y="-110" as="offset" />
          </mxGeometry>
        </mxCell>
        <mxCell id="HPRBRbmrhmFyrZqo4h2j-36" value="Доступ к личному кабинету" style="edgeLabel;html=1;align=center;verticalAlign=middle;resizable=0;points=[];" parent="HPRBRbmrhmFyrZqo4h2j-11" vertex="1" connectable="0">
          <mxGeometry x="0.8441" relative="1" as="geometry">
            <mxPoint x="454" y="320" as="offset" />
          </mxGeometry>
        </mxCell>
        <mxCell id="HPRBRbmrhmFyrZqo4h2j-37" value="Оплата заказов" style="edgeLabel;html=1;align=center;verticalAlign=middle;resizable=0;points=[];" parent="HPRBRbmrhmFyrZqo4h2j-11" vertex="1" connectable="0">
          <mxGeometry x="0.8441" relative="1" as="geometry">
            <mxPoint x="159" y="320" as="offset" />
          </mxGeometry>
        </mxCell>
        <mxCell id="HPRBRbmrhmFyrZqo4h2j-38" value="Отправка сообщений" style="edgeLabel;html=1;align=center;verticalAlign=middle;resizable=0;points=[];" parent="HPRBRbmrhmFyrZqo4h2j-11" vertex="1" connectable="0">
          <mxGeometry x="0.8441" relative="1" as="geometry">
            <mxPoint x="824" y="320" as="offset" />
          </mxGeometry>
        </mxCell>
        <mxCell id="HPRBRbmrhmFyrZqo4h2j-13" style="edgeStyle=orthogonalEdgeStyle;rounded=0;orthogonalLoop=1;jettySize=auto;html=1;entryX=0.5;entryY=0;entryDx=0;entryDy=0;entryPerimeter=0;" parent="CRoKaNGZ9nIs0wApv7u6-1" source="dYzpMSAWDg4H9lxUtFjr-10" target="nXjiOFzCeSzCIaUZXeVF-34" edge="1">
          <mxGeometry relative="1" as="geometry">
            <Array as="points">
              <mxPoint x="1150" y="680" />
              <mxPoint x="640" y="680" />
              <mxPoint x="640" y="1160" />
              <mxPoint x="480" y="1160" />
            </Array>
          </mxGeometry>
        </mxCell>
        <mxCell id="HPRBRbmrhmFyrZqo4h2j-14" style="edgeStyle=orthogonalEdgeStyle;rounded=0;orthogonalLoop=1;jettySize=auto;html=1;entryX=0.5;entryY=0;entryDx=0;entryDy=0;entryPerimeter=0;" parent="CRoKaNGZ9nIs0wApv7u6-1" source="dYzpMSAWDg4H9lxUtFjr-10" edge="1">
          <mxGeometry relative="1" as="geometry">
            <Array as="points">
              <mxPoint x="1150" y="680" />
              <mxPoint x="980" y="680" />
              <mxPoint x="980" y="1160" />
              <mxPoint x="810" y="1160" />
            </Array>
            <mxPoint x="810" y="1230" as="targetPoint" />
          </mxGeometry>
        </mxCell>
        <mxCell id="HPRBRbmrhmFyrZqo4h2j-17" style="edgeStyle=orthogonalEdgeStyle;rounded=0;orthogonalLoop=1;jettySize=auto;html=1;entryX=0.5;entryY=0;entryDx=0;entryDy=0;entryPerimeter=0;" parent="CRoKaNGZ9nIs0wApv7u6-1" source="dYzpMSAWDg4H9lxUtFjr-10" target="nXjiOFzCeSzCIaUZXeVF-46" edge="1">
          <mxGeometry relative="1" as="geometry">
            <Array as="points">
              <mxPoint x="1150" y="680" />
              <mxPoint x="1320" y="680" />
              <mxPoint x="1320" y="1160" />
              <mxPoint x="1150" y="1160" />
            </Array>
          </mxGeometry>
        </mxCell>
        <mxCell id="HPRBRbmrhmFyrZqo4h2j-29" value="RestAPI/HTTP" style="edgeLabel;html=1;align=center;verticalAlign=middle;resizable=0;points=[];" parent="HPRBRbmrhmFyrZqo4h2j-17" vertex="1" connectable="0">
          <mxGeometry x="-0.8936" y="3" relative="1" as="geometry">
            <mxPoint x="-54" y="-17" as="offset" />
          </mxGeometry>
        </mxCell>
        <mxCell id="HPRBRbmrhmFyrZqo4h2j-45" style="edgeStyle=orthogonalEdgeStyle;rounded=0;orthogonalLoop=1;jettySize=auto;html=1;entryX=0.5;entryY=0;entryDx=0;entryDy=0;entryPerimeter=0;" parent="CRoKaNGZ9nIs0wApv7u6-1" source="dYzpMSAWDg4H9lxUtFjr-10" target="nXjiOFzCeSzCIaUZXeVF-22" edge="1">
          <mxGeometry relative="1" as="geometry">
            <Array as="points">
              <mxPoint x="1150" y="670" />
              <mxPoint x="310" y="670" />
              <mxPoint x="310" y="1230" />
            </Array>
          </mxGeometry>
        </mxCell>
        <object placeholders="1" c4Name="API Gateway" c4Type="Software System" c4Description="Yandex Cloud Managed Service" label="&lt;font style=&quot;font-size: 16px&quot;&gt;&lt;b&gt;%c4Name%&lt;/b&gt;&lt;/font&gt;&lt;div&gt;[%c4Type%]&lt;/div&gt;&lt;br&gt;&lt;div&gt;&lt;font style=&quot;font-size: 11px&quot;&gt;&lt;font color=&quot;#cccccc&quot;&gt;%c4Description%&lt;/font&gt;&lt;/div&gt;" id="dYzpMSAWDg4H9lxUtFjr-10">
          <mxCell style="rounded=1;whiteSpace=wrap;html=1;labelBackgroundColor=none;fillColor=#8C8496;fontColor=#ffffff;align=center;arcSize=10;strokeColor=#736782;metaEdit=1;resizable=0;points=[[0.25,0,0],[0.5,0,0],[0.75,0,0],[1,0.25,0],[1,0.5,0],[1,0.75,0],[0.75,1,0],[0.5,1,0],[0.25,1,0],[0,0.75,0],[0,0.5,0],[0,0.25,0]];" parent="CRoKaNGZ9nIs0wApv7u6-1" vertex="1">
            <mxGeometry x="1030" y="520" width="240" height="120" as="geometry" />
          </mxCell>
        </object>
        <object placeholders="1" c4Name="Frontend" c4Type="SystemScopeBoundary" c4Application="Frontend системы" label="&lt;font style=&quot;font-size: 16px&quot;&gt;&lt;b&gt;&lt;div style=&quot;text-align: left&quot;&gt;%c4Name%&lt;/div&gt;&lt;/b&gt;&lt;/font&gt;&lt;div style=&quot;text-align: left&quot;&gt;[%c4Application%]&lt;/div&gt;" id="dYzpMSAWDg4H9lxUtFjr-11">
          <mxCell style="rounded=1;fontSize=11;whiteSpace=wrap;html=1;dashed=1;arcSize=20;fillColor=none;strokeColor=#666666;fontColor=#333333;labelBackgroundColor=none;align=left;verticalAlign=bottom;labelBorderColor=none;spacingTop=0;spacing=10;dashPattern=8 4;metaEdit=1;rotatable=0;perimeter=rectanglePerimeter;noLabel=0;labelPadding=0;allowArrows=0;connectable=0;expand=0;recursiveResize=0;editable=1;pointerEvents=0;absoluteArcSize=1;points=[[0.25,0,0],[0.5,0,0],[0.75,0,0],[1,0.25,0],[1,0.5,0],[1,0.75,0],[0.75,1,0],[0.5,1,0],[0.25,1,0],[0,0.75,0],[0,0.5,0],[0,0.25,0]];" parent="CRoKaNGZ9nIs0wApv7u6-1" vertex="1">
            <mxGeometry x="440" y="250" width="1140" height="210" as="geometry" />
          </mxCell>
        </object>
        <mxCell id="HPRBRbmrhmFyrZqo4h2j-1" style="edgeStyle=orthogonalEdgeStyle;rounded=0;orthogonalLoop=1;jettySize=auto;html=1;entryX=0.5;entryY=0;entryDx=0;entryDy=0;entryPerimeter=0;" parent="CRoKaNGZ9nIs0wApv7u6-1" source="dYzpMSAWDg4H9lxUtFjr-8" target="HPRBRbmrhmFyrZqo4h2j-0" edge="1">
          <mxGeometry relative="1" as="geometry" />
        </mxCell>
        <object placeholders="1" c4Name="TabloApp" c4Type="Container" c4Technology="Java Spring Boot" c4Description="Табло отображения статуса заказов в зале" label="&lt;font style=&quot;font-size: 16px&quot;&gt;&lt;b&gt;%c4Name%&lt;/b&gt;&lt;/font&gt;&lt;div&gt;[%c4Type%: %c4Technology%]&lt;/div&gt;&lt;br&gt;&lt;div&gt;&lt;font style=&quot;font-size: 11px&quot;&gt;&lt;font color=&quot;#E6E6E6&quot;&gt;%c4Description%&lt;/font&gt;&lt;/div&gt;" id="dYzpMSAWDg4H9lxUtFjr-8">
          <mxCell style="rounded=1;whiteSpace=wrap;html=1;fontSize=11;labelBackgroundColor=none;fillColor=#23A2D9;fontColor=#ffffff;align=center;arcSize=10;strokeColor=#0E7DAD;metaEdit=1;resizable=0;points=[[0.25,0,0],[0.5,0,0],[0.75,0,0],[1,0.25,0],[1,0.5,0],[1,0.75,0],[0.75,1,0],[0.5,1,0],[0.25,1,0],[0,0.75,0],[0,0.5,0],[0,0.25,0]];" parent="CRoKaNGZ9nIs0wApv7u6-1" vertex="1">
            <mxGeometry x="470" y="280" width="240" height="120" as="geometry" />
          </mxCell>
        </object>
        <mxCell id="nXjiOFzCeSzCIaUZXeVF-19" value="" style="edgeStyle=orthogonalEdgeStyle;rounded=0;orthogonalLoop=1;jettySize=auto;html=1;" parent="CRoKaNGZ9nIs0wApv7u6-1" source="nXjiOFzCeSzCIaUZXeVF-17" target="nXjiOFzCeSzCIaUZXeVF-18" edge="1">
          <mxGeometry relative="1" as="geometry" />
        </mxCell>
        <mxCell id="HPRBRbmrhmFyrZqo4h2j-18" style="edgeStyle=orthogonalEdgeStyle;rounded=0;orthogonalLoop=1;jettySize=auto;html=1;entryX=0.003;entryY=0.419;entryDx=0;entryDy=0;entryPerimeter=0;" parent="CRoKaNGZ9nIs0wApv7u6-1" source="nXjiOFzCeSzCIaUZXeVF-17" target="HPRBRbmrhmFyrZqo4h2j-0" edge="1">
          <mxGeometry relative="1" as="geometry">
            <Array as="points">
              <mxPoint x="210" y="850" />
              <mxPoint x="210" y="580" />
              <mxPoint x="471" y="580" />
              <mxPoint x="471" y="570" />
            </Array>
          </mxGeometry>
        </mxCell>
        <mxCell id="ZRQLyrMhQw_Z_AcvVRX8-3" style="edgeStyle=orthogonalEdgeStyle;rounded=0;orthogonalLoop=1;jettySize=auto;html=1;entryX=0.5;entryY=0;entryDx=0;entryDy=0;entryPerimeter=0;" parent="CRoKaNGZ9nIs0wApv7u6-1" source="nXjiOFzCeSzCIaUZXeVF-17" target="ZRQLyrMhQw_Z_AcvVRX8-1" edge="1">
          <mxGeometry relative="1" as="geometry">
            <Array as="points">
              <mxPoint x="170" y="850" />
              <mxPoint x="170" y="1640" />
              <mxPoint x="480" y="1640" />
            </Array>
          </mxGeometry>
        </mxCell>
        <mxCell id="ZRQLyrMhQw_Z_AcvVRX8-11" value="Отправка заказов" style="edgeLabel;html=1;align=center;verticalAlign=middle;resizable=0;points=[];" parent="ZRQLyrMhQw_Z_AcvVRX8-3" vertex="1" connectable="0">
          <mxGeometry x="-0.025" y="1" relative="1" as="geometry">
            <mxPoint x="254" y="323" as="offset" />
          </mxGeometry>
        </mxCell>
        <mxCell id="ZRQLyrMhQw_Z_AcvVRX8-12" value="Файловый обмен&lt;br&gt;[XML]" style="edgeLabel;html=1;align=center;verticalAlign=middle;resizable=0;points=[];" parent="ZRQLyrMhQw_Z_AcvVRX8-3" vertex="1" connectable="0">
          <mxGeometry x="0.8766" y="1" relative="1" as="geometry">
            <mxPoint x="49" y="49" as="offset" />
          </mxGeometry>
        </mxCell>
        <mxCell id="ZRQLyrMhQw_Z_AcvVRX8-15" value="Отправка СМС&lt;br&gt;[RestAPI/HTTPS]" style="edgeLabel;html=1;align=center;verticalAlign=middle;resizable=0;points=[];" parent="ZRQLyrMhQw_Z_AcvVRX8-3" vertex="1" connectable="0">
          <mxGeometry x="0.8766" y="1" relative="1" as="geometry">
            <mxPoint x="725" y="51" as="offset" />
          </mxGeometry>
        </mxCell>
        <object placeholders="1" c4Name="Orders service" c4Type="Container" c4Technology="Go Kit" c4Description="Заказы клиентов" label="&lt;font style=&quot;font-size: 16px&quot;&gt;&lt;b&gt;%c4Name%&lt;/b&gt;&lt;/font&gt;&lt;div&gt;[%c4Type%: %c4Technology%]&lt;/div&gt;&lt;br&gt;&lt;div&gt;&lt;font style=&quot;font-size: 11px&quot;&gt;&lt;font color=&quot;#E6E6E6&quot;&gt;%c4Description%&lt;/font&gt;&lt;/div&gt;" id="nXjiOFzCeSzCIaUZXeVF-17">
          <mxCell style="rounded=1;whiteSpace=wrap;html=1;fontSize=11;labelBackgroundColor=none;fillColor=#23A2D9;fontColor=#ffffff;align=center;arcSize=10;strokeColor=#0E7DAD;metaEdit=1;resizable=0;points=[[0.25,0,0],[0.5,0,0],[0.75,0,0],[1,0.25,0],[1,0.5,0],[1,0.75,0],[0.75,1,0],[0.5,1,0],[0.25,1,0],[0,0.75,0],[0,0.5,0],[0,0.25,0]];" parent="CRoKaNGZ9nIs0wApv7u6-1" vertex="1">
            <mxGeometry x="360" y="790" width="240" height="120" as="geometry" />
          </mxCell>
        </object>
        <object placeholders="1" c4Type="Orders database" c4Container="Container" c4Technology="Mongo DB" c4Description="Хранение заказов клиентов" label="&lt;font style=&quot;font-size: 16px&quot;&gt;&lt;b&gt;%c4Type%&lt;/b&gt;&lt;/font&gt;&lt;div&gt;[%c4Container%:&amp;nbsp;%c4Technology%]&lt;/div&gt;&lt;br&gt;&lt;div&gt;&lt;font style=&quot;font-size: 11px&quot;&gt;&lt;font color=&quot;#E6E6E6&quot;&gt;%c4Description%&lt;/font&gt;&lt;/div&gt;" id="nXjiOFzCeSzCIaUZXeVF-18">
          <mxCell style="shape=cylinder3;size=15;whiteSpace=wrap;html=1;boundedLbl=1;rounded=0;labelBackgroundColor=none;fillColor=#23A2D9;fontSize=12;fontColor=#ffffff;align=center;strokeColor=#0E7DAD;metaEdit=1;points=[[0.5,0,0],[1,0.25,0],[1,0.5,0],[1,0.75,0],[0.5,1,0],[0,0.75,0],[0,0.5,0],[0,0.25,0]];resizable=0;" parent="CRoKaNGZ9nIs0wApv7u6-1" vertex="1">
            <mxGeometry x="360" y="950" width="240" height="120" as="geometry" />
          </mxCell>
        </object>
        <object placeholders="1" c4Name="Заказы клиентов" c4Type="ContainerScopeBoundary" c4Application="Микросервис" label="&lt;font style=&quot;font-size: 16px&quot;&gt;&lt;b&gt;&lt;div style=&quot;text-align: left&quot;&gt;%c4Name%&lt;/div&gt;&lt;/b&gt;&lt;/font&gt;&lt;div style=&quot;text-align: left&quot;&gt;[%c4Application%]&lt;/div&gt;" id="nXjiOFzCeSzCIaUZXeVF-20">
          <mxCell style="rounded=1;fontSize=11;whiteSpace=wrap;html=1;dashed=1;arcSize=20;fillColor=none;strokeColor=#666666;fontColor=#333333;labelBackgroundColor=none;align=left;verticalAlign=bottom;labelBorderColor=none;spacingTop=0;spacing=10;dashPattern=8 4;metaEdit=1;rotatable=0;perimeter=rectanglePerimeter;noLabel=0;labelPadding=0;allowArrows=0;connectable=0;expand=0;recursiveResize=0;editable=1;pointerEvents=0;absoluteArcSize=1;points=[[0.25,0,0],[0.5,0,0],[0.75,0,0],[1,0.25,0],[1,0.5,0],[1,0.75,0],[0.75,1,0],[0.5,1,0],[0.25,1,0],[0,0.75,0],[0,0.5,0],[0,0.25,0]];" parent="CRoKaNGZ9nIs0wApv7u6-1" vertex="1">
            <mxGeometry x="330" y="760" width="300" height="360" as="geometry" />
          </mxCell>
        </object>
        <mxCell id="nXjiOFzCeSzCIaUZXeVF-21" value="" style="edgeStyle=orthogonalEdgeStyle;rounded=0;orthogonalLoop=1;jettySize=auto;html=1;" parent="CRoKaNGZ9nIs0wApv7u6-1" source="nXjiOFzCeSzCIaUZXeVF-22" target="nXjiOFzCeSzCIaUZXeVF-23" edge="1">
          <mxGeometry relative="1" as="geometry" />
        </mxCell>
        <mxCell id="HPRBRbmrhmFyrZqo4h2j-19" style="edgeStyle=orthogonalEdgeStyle;rounded=0;orthogonalLoop=1;jettySize=auto;html=1;entryX=0.005;entryY=0.409;entryDx=0;entryDy=0;entryPerimeter=0;" parent="CRoKaNGZ9nIs0wApv7u6-1" source="nXjiOFzCeSzCIaUZXeVF-22" target="HPRBRbmrhmFyrZqo4h2j-0" edge="1">
          <mxGeometry relative="1" as="geometry">
            <Array as="points">
              <mxPoint x="210" y="1290" />
              <mxPoint x="210" y="580" />
              <mxPoint x="471" y="580" />
              <mxPoint x="471" y="569" />
            </Array>
          </mxGeometry>
        </mxCell>
        <mxCell id="ZRQLyrMhQw_Z_AcvVRX8-0" style="edgeStyle=orthogonalEdgeStyle;rounded=0;orthogonalLoop=1;jettySize=auto;html=1;" parent="CRoKaNGZ9nIs0wApv7u6-1" source="nXjiOFzCeSzCIaUZXeVF-22" target="FS6hOxFuUdMwuTiDgxPC-3" edge="1">
          <mxGeometry relative="1" as="geometry">
            <Array as="points">
              <mxPoint x="320" y="1290" />
              <mxPoint x="320" y="1590" />
              <mxPoint x="810" y="1590" />
            </Array>
          </mxGeometry>
        </mxCell>
        <object placeholders="1" c4Name="Payment service" c4Type="Container" c4Technology="Go Kit" c4Description="Оплата заказов" label="&lt;font style=&quot;font-size: 16px&quot;&gt;&lt;b&gt;%c4Name%&lt;/b&gt;&lt;/font&gt;&lt;div&gt;[%c4Type%: %c4Technology%]&lt;/div&gt;&lt;br&gt;&lt;div&gt;&lt;font style=&quot;font-size: 11px&quot;&gt;&lt;font color=&quot;#E6E6E6&quot;&gt;%c4Description%&lt;/font&gt;&lt;/div&gt;" id="nXjiOFzCeSzCIaUZXeVF-22">
          <mxCell style="rounded=1;whiteSpace=wrap;html=1;fontSize=11;labelBackgroundColor=none;fillColor=#23A2D9;fontColor=#ffffff;align=center;arcSize=10;strokeColor=#0E7DAD;metaEdit=1;resizable=0;points=[[0.25,0,0],[0.5,0,0],[0.75,0,0],[1,0.25,0],[1,0.5,0],[1,0.75,0],[0.75,1,0],[0.5,1,0],[0.25,1,0],[0,0.75,0],[0,0.5,0],[0,0.25,0]];" parent="CRoKaNGZ9nIs0wApv7u6-1" vertex="1">
            <mxGeometry x="360" y="1230" width="240" height="120" as="geometry" />
          </mxCell>
        </object>
        <object placeholders="1" c4Type="Payment database" c4Container="Container" c4Technology="Mongo DB" c4Description="Хранение оплат заказов" label="&lt;font style=&quot;font-size: 16px&quot;&gt;&lt;b&gt;%c4Type%&lt;/b&gt;&lt;/font&gt;&lt;div&gt;[%c4Container%:&amp;nbsp;%c4Technology%]&lt;/div&gt;&lt;br&gt;&lt;div&gt;&lt;font style=&quot;font-size: 11px&quot;&gt;&lt;font color=&quot;#E6E6E6&quot;&gt;%c4Description%&lt;/font&gt;&lt;/div&gt;" id="nXjiOFzCeSzCIaUZXeVF-23">
          <mxCell style="shape=cylinder3;size=15;whiteSpace=wrap;html=1;boundedLbl=1;rounded=0;labelBackgroundColor=none;fillColor=#23A2D9;fontSize=12;fontColor=#ffffff;align=center;strokeColor=#0E7DAD;metaEdit=1;points=[[0.5,0,0],[1,0.25,0],[1,0.5,0],[1,0.75,0],[0.5,1,0],[0,0.75,0],[0,0.5,0],[0,0.25,0]];resizable=0;" parent="CRoKaNGZ9nIs0wApv7u6-1" vertex="1">
            <mxGeometry x="360" y="1390" width="240" height="120" as="geometry" />
          </mxCell>
        </object>
        <object placeholders="1" c4Name="Оплата заказов" c4Type="ContainerScopeBoundary" c4Application="Микросервис" label="&lt;font style=&quot;font-size: 16px&quot;&gt;&lt;b&gt;&lt;div style=&quot;text-align: left&quot;&gt;%c4Name%&lt;/div&gt;&lt;/b&gt;&lt;/font&gt;&lt;div style=&quot;text-align: left&quot;&gt;[%c4Application%]&lt;/div&gt;" id="nXjiOFzCeSzCIaUZXeVF-24">
          <mxCell style="rounded=1;fontSize=11;whiteSpace=wrap;html=1;dashed=1;arcSize=20;fillColor=none;strokeColor=#666666;fontColor=#333333;labelBackgroundColor=none;align=left;verticalAlign=bottom;labelBorderColor=none;spacingTop=0;spacing=10;dashPattern=8 4;metaEdit=1;rotatable=0;perimeter=rectanglePerimeter;noLabel=0;labelPadding=0;allowArrows=0;connectable=0;expand=0;recursiveResize=0;editable=1;pointerEvents=0;absoluteArcSize=1;points=[[0.25,0,0],[0.5,0,0],[0.75,0,0],[1,0.25,0],[1,0.5,0],[1,0.75,0],[0.75,1,0],[0.5,1,0],[0.25,1,0],[0,0.75,0],[0,0.5,0],[0,0.25,0]];" parent="CRoKaNGZ9nIs0wApv7u6-1" vertex="1">
            <mxGeometry x="330" y="1200" width="300" height="360" as="geometry" />
          </mxCell>
        </object>
        <mxCell id="nXjiOFzCeSzCIaUZXeVF-25" value="" style="edgeStyle=orthogonalEdgeStyle;rounded=0;orthogonalLoop=1;jettySize=auto;html=1;" parent="CRoKaNGZ9nIs0wApv7u6-1" source="nXjiOFzCeSzCIaUZXeVF-26" target="nXjiOFzCeSzCIaUZXeVF-27" edge="1">
          <mxGeometry relative="1" as="geometry" />
        </mxCell>
        <object placeholders="1" c4Name="Client registration service" c4Type="Container" c4Technology="Go Kit" c4Description="Регистрация клиентов" label="&lt;font style=&quot;font-size: 16px&quot;&gt;&lt;b&gt;%c4Name%&lt;/b&gt;&lt;/font&gt;&lt;div&gt;[%c4Type%: %c4Technology%]&lt;/div&gt;&lt;br&gt;&lt;div&gt;&lt;font style=&quot;font-size: 11px&quot;&gt;&lt;font color=&quot;#E6E6E6&quot;&gt;%c4Description%&lt;/font&gt;&lt;/div&gt;" id="nXjiOFzCeSzCIaUZXeVF-26">
          <mxCell style="rounded=1;whiteSpace=wrap;html=1;fontSize=11;labelBackgroundColor=none;fillColor=#23A2D9;fontColor=#ffffff;align=center;arcSize=10;strokeColor=#0E7DAD;metaEdit=1;resizable=0;points=[[0.25,0,0],[0.5,0,0],[0.75,0,0],[1,0.25,0],[1,0.5,0],[1,0.75,0],[0.75,1,0],[0.5,1,0],[0.25,1,0],[0,0.75,0],[0,0.5,0],[0,0.25,0]];" parent="CRoKaNGZ9nIs0wApv7u6-1" vertex="1">
            <mxGeometry x="690" y="790" width="240" height="120" as="geometry" />
          </mxCell>
        </object>
        <object placeholders="1" c4Type="Client registration database" c4Container="Container" c4Technology="Mongo DB" c4Description="Хранение данных регистрации клиентов" label="&lt;font style=&quot;font-size: 16px&quot;&gt;&lt;b&gt;%c4Type%&lt;/b&gt;&lt;/font&gt;&lt;div&gt;[%c4Container%:&amp;nbsp;%c4Technology%]&lt;/div&gt;&lt;br&gt;&lt;div&gt;&lt;font style=&quot;font-size: 11px&quot;&gt;&lt;font color=&quot;#E6E6E6&quot;&gt;%c4Description%&lt;/font&gt;&lt;/div&gt;" id="nXjiOFzCeSzCIaUZXeVF-27">
          <mxCell style="shape=cylinder3;size=15;whiteSpace=wrap;html=1;boundedLbl=1;rounded=0;labelBackgroundColor=none;fillColor=#23A2D9;fontSize=12;fontColor=#ffffff;align=center;strokeColor=#0E7DAD;metaEdit=1;points=[[0.5,0,0],[1,0.25,0],[1,0.5,0],[1,0.75,0],[0.5,1,0],[0,0.75,0],[0,0.5,0],[0,0.25,0]];resizable=0;" parent="CRoKaNGZ9nIs0wApv7u6-1" vertex="1">
            <mxGeometry x="690" y="950" width="240" height="120" as="geometry" />
          </mxCell>
        </object>
        <object placeholders="1" c4Name="Регистрация клиентов" c4Type="ContainerScopeBoundary" c4Application="Микросервис" label="&lt;font style=&quot;font-size: 16px&quot;&gt;&lt;b&gt;&lt;div style=&quot;text-align: left&quot;&gt;%c4Name%&lt;/div&gt;&lt;/b&gt;&lt;/font&gt;&lt;div style=&quot;text-align: left&quot;&gt;[%c4Application%]&lt;/div&gt;" id="nXjiOFzCeSzCIaUZXeVF-28">
          <mxCell style="rounded=1;fontSize=11;whiteSpace=wrap;html=1;dashed=1;arcSize=20;fillColor=none;strokeColor=#666666;fontColor=#333333;labelBackgroundColor=none;align=left;verticalAlign=bottom;labelBorderColor=none;spacingTop=0;spacing=10;dashPattern=8 4;metaEdit=1;rotatable=0;perimeter=rectanglePerimeter;noLabel=0;labelPadding=0;allowArrows=0;connectable=0;expand=0;recursiveResize=0;editable=1;pointerEvents=0;absoluteArcSize=1;points=[[0.25,0,0],[0.5,0,0],[0.75,0,0],[1,0.25,0],[1,0.5,0],[1,0.75,0],[0.75,1,0],[0.5,1,0],[0.25,1,0],[0,0.75,0],[0,0.5,0],[0,0.25,0]];" parent="CRoKaNGZ9nIs0wApv7u6-1" vertex="1">
            <mxGeometry x="660" y="760" width="300" height="360" as="geometry" />
          </mxCell>
        </object>
        <mxCell id="nXjiOFzCeSzCIaUZXeVF-29" value="" style="edgeStyle=orthogonalEdgeStyle;rounded=0;orthogonalLoop=1;jettySize=auto;html=1;" parent="CRoKaNGZ9nIs0wApv7u6-1" edge="1">
          <mxGeometry relative="1" as="geometry">
            <mxPoint x="810" y="910" as="sourcePoint" />
            <mxPoint x="810" y="950" as="targetPoint" />
          </mxGeometry>
        </mxCell>
        <mxCell id="nXjiOFzCeSzCIaUZXeVF-33" value="" style="edgeStyle=orthogonalEdgeStyle;rounded=0;orthogonalLoop=1;jettySize=auto;html=1;" parent="CRoKaNGZ9nIs0wApv7u6-1" source="nXjiOFzCeSzCIaUZXeVF-34" target="nXjiOFzCeSzCIaUZXeVF-35" edge="1">
          <mxGeometry relative="1" as="geometry" />
        </mxCell>
        <object placeholders="1" c4Name="Client account service" c4Type="Container" c4Technology="Go Kit" c4Description="Личный кабинет клиентов" label="&lt;font style=&quot;font-size: 16px&quot;&gt;&lt;b&gt;%c4Name%&lt;/b&gt;&lt;/font&gt;&lt;div&gt;[%c4Type%: %c4Technology%]&lt;/div&gt;&lt;br&gt;&lt;div&gt;&lt;font style=&quot;font-size: 11px&quot;&gt;&lt;font color=&quot;#E6E6E6&quot;&gt;%c4Description%&lt;/font&gt;&lt;/div&gt;" id="nXjiOFzCeSzCIaUZXeVF-34">
          <mxCell style="rounded=1;whiteSpace=wrap;html=1;fontSize=11;labelBackgroundColor=none;fillColor=#23A2D9;fontColor=#ffffff;align=center;arcSize=10;strokeColor=#0E7DAD;metaEdit=1;resizable=0;points=[[0.25,0,0],[0.5,0,0],[0.75,0,0],[1,0.25,0],[1,0.5,0],[1,0.75,0],[0.75,1,0],[0.5,1,0],[0.25,1,0],[0,0.75,0],[0,0.5,0],[0,0.25,0]];" parent="CRoKaNGZ9nIs0wApv7u6-1" vertex="1">
            <mxGeometry x="690" y="1230" width="240" height="120" as="geometry" />
          </mxCell>
        </object>
        <object placeholders="1" c4Type="Client account database" c4Container="Container" c4Technology="Mongo DB" c4Description="Хранение данных регистрации клиентов" label="&lt;font style=&quot;font-size: 16px&quot;&gt;&lt;b&gt;%c4Type%&lt;/b&gt;&lt;/font&gt;&lt;div&gt;[%c4Container%:&amp;nbsp;%c4Technology%]&lt;/div&gt;&lt;br&gt;&lt;div&gt;&lt;font style=&quot;font-size: 11px&quot;&gt;&lt;font color=&quot;#E6E6E6&quot;&gt;%c4Description%&lt;/font&gt;&lt;/div&gt;" id="nXjiOFzCeSzCIaUZXeVF-35">
          <mxCell style="shape=cylinder3;size=15;whiteSpace=wrap;html=1;boundedLbl=1;rounded=0;labelBackgroundColor=none;fillColor=#23A2D9;fontSize=12;fontColor=#ffffff;align=center;strokeColor=#0E7DAD;metaEdit=1;points=[[0.5,0,0],[1,0.25,0],[1,0.5,0],[1,0.75,0],[0.5,1,0],[0,0.75,0],[0,0.5,0],[0,0.25,0]];resizable=0;" parent="CRoKaNGZ9nIs0wApv7u6-1" vertex="1">
            <mxGeometry x="690" y="1390" width="240" height="120" as="geometry" />
          </mxCell>
        </object>
        <object placeholders="1" c4Name="Личный кабинет клиентов" c4Type="ContainerScopeBoundary" c4Application="Микросервис" label="&lt;font style=&quot;font-size: 16px&quot;&gt;&lt;b&gt;&lt;div style=&quot;text-align: left&quot;&gt;%c4Name%&lt;/div&gt;&lt;/b&gt;&lt;/font&gt;&lt;div style=&quot;text-align: left&quot;&gt;[%c4Application%]&lt;/div&gt;" id="nXjiOFzCeSzCIaUZXeVF-36">
          <mxCell style="rounded=1;fontSize=11;whiteSpace=wrap;html=1;dashed=1;arcSize=20;fillColor=none;strokeColor=#666666;fontColor=#333333;labelBackgroundColor=none;align=left;verticalAlign=bottom;labelBorderColor=none;spacingTop=0;spacing=10;dashPattern=8 4;metaEdit=1;rotatable=0;perimeter=rectanglePerimeter;noLabel=0;labelPadding=0;allowArrows=0;connectable=0;expand=0;recursiveResize=0;editable=1;pointerEvents=0;absoluteArcSize=1;points=[[0.25,0,0],[0.5,0,0],[0.75,0,0],[1,0.25,0],[1,0.5,0],[1,0.75,0],[0.75,1,0],[0.5,1,0],[0.25,1,0],[0,0.75,0],[0,0.5,0],[0,0.25,0]];" parent="CRoKaNGZ9nIs0wApv7u6-1" vertex="1">
            <mxGeometry x="660" y="1200" width="300" height="360" as="geometry" />
          </mxCell>
        </object>
        <mxCell id="nXjiOFzCeSzCIaUZXeVF-41" value="" style="edgeStyle=orthogonalEdgeStyle;rounded=0;orthogonalLoop=1;jettySize=auto;html=1;" parent="CRoKaNGZ9nIs0wApv7u6-1" source="nXjiOFzCeSzCIaUZXeVF-42" target="nXjiOFzCeSzCIaUZXeVF-43" edge="1">
          <mxGeometry relative="1" as="geometry" />
        </mxCell>
        <mxCell id="HPRBRbmrhmFyrZqo4h2j-24" style="edgeStyle=orthogonalEdgeStyle;rounded=0;orthogonalLoop=1;jettySize=auto;html=1;entryX=0;entryY=0.417;entryDx=0;entryDy=0;entryPerimeter=0;" parent="CRoKaNGZ9nIs0wApv7u6-1" source="nXjiOFzCeSzCIaUZXeVF-42" target="HPRBRbmrhmFyrZqo4h2j-0" edge="1">
          <mxGeometry relative="1" as="geometry">
            <mxPoint x="-40" y="650" as="targetPoint" />
            <Array as="points">
              <mxPoint x="1120" y="730" />
              <mxPoint x="210" y="730" />
              <mxPoint x="210" y="580" />
              <mxPoint x="470" y="580" />
              <mxPoint x="470" y="570" />
            </Array>
          </mxGeometry>
        </mxCell>
        <mxCell id="ZRQLyrMhQw_Z_AcvVRX8-8" style="edgeStyle=orthogonalEdgeStyle;rounded=0;orthogonalLoop=1;jettySize=auto;html=1;entryX=0;entryY=0.5;entryDx=0;entryDy=0;entryPerimeter=0;" parent="CRoKaNGZ9nIs0wApv7u6-1" source="nXjiOFzCeSzCIaUZXeVF-42" target="ZRQLyrMhQw_Z_AcvVRX8-7" edge="1">
          <mxGeometry relative="1" as="geometry" />
        </mxCell>
        <object placeholders="1" c4Name="Cash register service" c4Type="Container" c4Technology="Go Kit" c4Description="Касса" label="&lt;font style=&quot;font-size: 16px&quot;&gt;&lt;b&gt;%c4Name%&lt;/b&gt;&lt;/font&gt;&lt;div&gt;[%c4Type%: %c4Technology%]&lt;/div&gt;&lt;br&gt;&lt;div&gt;&lt;font style=&quot;font-size: 11px&quot;&gt;&lt;font color=&quot;#E6E6E6&quot;&gt;%c4Description%&lt;/font&gt;&lt;/div&gt;" id="nXjiOFzCeSzCIaUZXeVF-42">
          <mxCell style="rounded=1;whiteSpace=wrap;html=1;fontSize=11;labelBackgroundColor=none;fillColor=#23A2D9;fontColor=#ffffff;align=center;arcSize=10;strokeColor=#0E7DAD;metaEdit=1;resizable=0;points=[[0.25,0,0],[0.5,0,0],[0.75,0,0],[1,0.25,0],[1,0.5,0],[1,0.75,0],[0.75,1,0],[0.5,1,0],[0.25,1,0],[0,0.75,0],[0,0.5,0],[0,0.25,0]];" parent="CRoKaNGZ9nIs0wApv7u6-1" vertex="1">
            <mxGeometry x="1030" y="790" width="240" height="120" as="geometry" />
          </mxCell>
        </object>
        <object placeholders="1" c4Type="Cash register database" c4Container="Container" c4Technology="Mongo DB" c4Description="Хранение данных кассовых операций" label="&lt;font style=&quot;font-size: 16px&quot;&gt;&lt;b&gt;%c4Type%&lt;/b&gt;&lt;/font&gt;&lt;div&gt;[%c4Container%:&amp;nbsp;%c4Technology%]&lt;/div&gt;&lt;br&gt;&lt;div&gt;&lt;font style=&quot;font-size: 11px&quot;&gt;&lt;font color=&quot;#E6E6E6&quot;&gt;%c4Description%&lt;/font&gt;&lt;/div&gt;" id="nXjiOFzCeSzCIaUZXeVF-43">
          <mxCell style="shape=cylinder3;size=15;whiteSpace=wrap;html=1;boundedLbl=1;rounded=0;labelBackgroundColor=none;fillColor=#23A2D9;fontSize=12;fontColor=#ffffff;align=center;strokeColor=#0E7DAD;metaEdit=1;points=[[0.5,0,0],[1,0.25,0],[1,0.5,0],[1,0.75,0],[0.5,1,0],[0,0.75,0],[0,0.5,0],[0,0.25,0]];resizable=0;" parent="CRoKaNGZ9nIs0wApv7u6-1" vertex="1">
            <mxGeometry x="1030" y="950" width="240" height="120" as="geometry" />
          </mxCell>
        </object>
        <object placeholders="1" c4Name="Касса" c4Type="ContainerScopeBoundary" c4Application="Микросервис" label="&lt;font style=&quot;font-size: 16px&quot;&gt;&lt;b&gt;&lt;div style=&quot;text-align: left&quot;&gt;%c4Name%&lt;/div&gt;&lt;/b&gt;&lt;/font&gt;&lt;div style=&quot;text-align: left&quot;&gt;[%c4Application%]&lt;/div&gt;" id="nXjiOFzCeSzCIaUZXeVF-44">
          <mxCell style="rounded=1;fontSize=11;whiteSpace=wrap;html=1;dashed=1;arcSize=20;fillColor=none;strokeColor=#666666;fontColor=#333333;labelBackgroundColor=none;align=left;verticalAlign=bottom;labelBorderColor=none;spacingTop=0;spacing=10;dashPattern=8 4;metaEdit=1;rotatable=0;perimeter=rectanglePerimeter;noLabel=0;labelPadding=0;allowArrows=0;connectable=0;expand=0;recursiveResize=0;editable=1;pointerEvents=0;absoluteArcSize=1;points=[[0.25,0,0],[0.5,0,0],[0.75,0,0],[1,0.25,0],[1,0.5,0],[1,0.75,0],[0.75,1,0],[0.5,1,0],[0.25,1,0],[0,0.75,0],[0,0.5,0],[0,0.25,0]];" parent="CRoKaNGZ9nIs0wApv7u6-1" vertex="1">
            <mxGeometry x="1000" y="760" width="300" height="360" as="geometry" />
          </mxCell>
        </object>
        <mxCell id="nXjiOFzCeSzCIaUZXeVF-45" value="" style="edgeStyle=orthogonalEdgeStyle;rounded=0;orthogonalLoop=1;jettySize=auto;html=1;" parent="CRoKaNGZ9nIs0wApv7u6-1" source="nXjiOFzCeSzCIaUZXeVF-46" target="nXjiOFzCeSzCIaUZXeVF-47" edge="1">
          <mxGeometry relative="1" as="geometry" />
        </mxCell>
        <mxCell id="HPRBRbmrhmFyrZqo4h2j-20" style="edgeStyle=orthogonalEdgeStyle;rounded=0;orthogonalLoop=1;jettySize=auto;html=1;entryX=0.01;entryY=0.38;entryDx=0;entryDy=0;entryPerimeter=0;" parent="CRoKaNGZ9nIs0wApv7u6-1" source="nXjiOFzCeSzCIaUZXeVF-46" target="HPRBRbmrhmFyrZqo4h2j-0" edge="1">
          <mxGeometry relative="1" as="geometry">
            <mxPoint x="-40" y="610" as="targetPoint" />
            <Array as="points">
              <mxPoint x="1120" y="1180" />
              <mxPoint x="210" y="1180" />
              <mxPoint x="210" y="580" />
              <mxPoint x="472" y="580" />
              <mxPoint x="472" y="566" />
            </Array>
          </mxGeometry>
        </mxCell>
        <mxCell id="FS6hOxFuUdMwuTiDgxPC-0" style="edgeStyle=orthogonalEdgeStyle;rounded=0;orthogonalLoop=1;jettySize=auto;html=1;" parent="CRoKaNGZ9nIs0wApv7u6-1" source="nXjiOFzCeSzCIaUZXeVF-46" target="HPRBRbmrhmFyrZqo4h2j-54" edge="1">
          <mxGeometry relative="1" as="geometry">
            <Array as="points">
              <mxPoint x="1320" y="1290" />
              <mxPoint x="1320" y="1590" />
              <mxPoint x="1150" y="1590" />
            </Array>
          </mxGeometry>
        </mxCell>
        <object placeholders="1" c4Name="Message service" c4Type="Container" c4Technology="Go Kit" c4Description="Сообщения" label="&lt;font style=&quot;font-size: 16px&quot;&gt;&lt;b&gt;%c4Name%&lt;/b&gt;&lt;/font&gt;&lt;div&gt;[%c4Type%: %c4Technology%]&lt;/div&gt;&lt;br&gt;&lt;div&gt;&lt;font style=&quot;font-size: 11px&quot;&gt;&lt;font color=&quot;#E6E6E6&quot;&gt;%c4Description%&lt;/font&gt;&lt;/div&gt;" id="nXjiOFzCeSzCIaUZXeVF-46">
          <mxCell style="rounded=1;whiteSpace=wrap;html=1;fontSize=11;labelBackgroundColor=none;fillColor=#23A2D9;fontColor=#ffffff;align=center;arcSize=10;strokeColor=#0E7DAD;metaEdit=1;resizable=0;points=[[0.25,0,0],[0.5,0,0],[0.75,0,0],[1,0.25,0],[1,0.5,0],[1,0.75,0],[0.75,1,0],[0.5,1,0],[0.25,1,0],[0,0.75,0],[0,0.5,0],[0,0.25,0]];" parent="CRoKaNGZ9nIs0wApv7u6-1" vertex="1">
            <mxGeometry x="1030" y="1230" width="240" height="120" as="geometry" />
          </mxCell>
        </object>
        <object placeholders="1" c4Type="Message database" c4Container="Container" c4Technology="Mongo DB" c4Description="Хранение данных отправленных сообщений" label="&lt;font style=&quot;font-size: 16px&quot;&gt;&lt;b&gt;%c4Type%&lt;/b&gt;&lt;/font&gt;&lt;div&gt;[%c4Container%:&amp;nbsp;%c4Technology%]&lt;/div&gt;&lt;br&gt;&lt;div&gt;&lt;font style=&quot;font-size: 11px&quot;&gt;&lt;font color=&quot;#E6E6E6&quot;&gt;%c4Description%&lt;/font&gt;&lt;/div&gt;" id="nXjiOFzCeSzCIaUZXeVF-47">
          <mxCell style="shape=cylinder3;size=15;whiteSpace=wrap;html=1;boundedLbl=1;rounded=0;labelBackgroundColor=none;fillColor=#23A2D9;fontSize=12;fontColor=#ffffff;align=center;strokeColor=#0E7DAD;metaEdit=1;points=[[0.5,0,0],[1,0.25,0],[1,0.5,0],[1,0.75,0],[0.5,1,0],[0,0.75,0],[0,0.5,0],[0,0.25,0]];resizable=0;" parent="CRoKaNGZ9nIs0wApv7u6-1" vertex="1">
            <mxGeometry x="1030" y="1390" width="240" height="120" as="geometry" />
          </mxCell>
        </object>
        <object placeholders="1" c4Name="Сообщения" c4Type="ContainerScopeBoundary" c4Application="Микросервис" label="&lt;font style=&quot;font-size: 16px&quot;&gt;&lt;b&gt;&lt;div style=&quot;text-align: left&quot;&gt;%c4Name%&lt;/div&gt;&lt;/b&gt;&lt;/font&gt;&lt;div style=&quot;text-align: left&quot;&gt;[%c4Application%]&lt;/div&gt;" id="nXjiOFzCeSzCIaUZXeVF-48">
          <mxCell style="rounded=1;fontSize=11;whiteSpace=wrap;html=1;dashed=1;arcSize=20;fillColor=none;strokeColor=#666666;fontColor=#333333;labelBackgroundColor=none;align=left;verticalAlign=bottom;labelBorderColor=none;spacingTop=0;spacing=10;dashPattern=8 4;metaEdit=1;rotatable=0;perimeter=rectanglePerimeter;noLabel=0;labelPadding=0;allowArrows=0;connectable=0;expand=0;recursiveResize=0;editable=1;pointerEvents=0;absoluteArcSize=1;points=[[0.25,0,0],[0.5,0,0],[0.75,0,0],[1,0.25,0],[1,0.5,0],[1,0.75,0],[0.75,1,0],[0.5,1,0],[0.25,1,0],[0,0.75,0],[0,0.5,0],[0,0.25,0]];" parent="CRoKaNGZ9nIs0wApv7u6-1" vertex="1">
            <mxGeometry x="1000" y="1200" width="300" height="360" as="geometry" />
          </mxCell>
        </object>
        <mxCell id="nXjiOFzCeSzCIaUZXeVF-49" value="" style="edgeStyle=orthogonalEdgeStyle;rounded=0;orthogonalLoop=1;jettySize=auto;html=1;" parent="CRoKaNGZ9nIs0wApv7u6-1" source="nXjiOFzCeSzCIaUZXeVF-50" target="nXjiOFzCeSzCIaUZXeVF-51" edge="1">
          <mxGeometry relative="1" as="geometry" />
        </mxCell>
        <object placeholders="1" c4Name="Menu service" c4Type="Container" c4Technology="Go Kit" c4Description="Меню" label="&lt;font style=&quot;font-size: 16px&quot;&gt;&lt;b&gt;%c4Name%&lt;/b&gt;&lt;/font&gt;&lt;div&gt;[%c4Type%: %c4Technology%]&lt;/div&gt;&lt;br&gt;&lt;div&gt;&lt;font style=&quot;font-size: 11px&quot;&gt;&lt;font color=&quot;#E6E6E6&quot;&gt;%c4Description%&lt;/font&gt;&lt;/div&gt;" id="nXjiOFzCeSzCIaUZXeVF-50">
          <mxCell style="rounded=1;whiteSpace=wrap;html=1;fontSize=11;labelBackgroundColor=none;fillColor=#23A2D9;fontColor=#ffffff;align=center;arcSize=10;strokeColor=#0E7DAD;metaEdit=1;resizable=0;points=[[0.25,0,0],[0.5,0,0],[0.75,0,0],[1,0.25,0],[1,0.5,0],[1,0.75,0],[0.75,1,0],[0.5,1,0],[0.25,1,0],[0,0.75,0],[0,0.5,0],[0,0.25,0]];" parent="CRoKaNGZ9nIs0wApv7u6-1" vertex="1">
            <mxGeometry x="1370" y="790" width="240" height="120" as="geometry" />
          </mxCell>
        </object>
        <object placeholders="1" c4Type="Menu database" c4Container="Container" c4Technology="Mongo DB" c4Description="Хранение данных меню" label="&lt;font style=&quot;font-size: 16px&quot;&gt;&lt;b&gt;%c4Type%&lt;/b&gt;&lt;/font&gt;&lt;div&gt;[%c4Container%:&amp;nbsp;%c4Technology%]&lt;/div&gt;&lt;br&gt;&lt;div&gt;&lt;font style=&quot;font-size: 11px&quot;&gt;&lt;font color=&quot;#E6E6E6&quot;&gt;%c4Description%&lt;/font&gt;&lt;/div&gt;" id="nXjiOFzCeSzCIaUZXeVF-51">
          <mxCell style="shape=cylinder3;size=15;whiteSpace=wrap;html=1;boundedLbl=1;rounded=0;labelBackgroundColor=none;fillColor=#23A2D9;fontSize=12;fontColor=#ffffff;align=center;strokeColor=#0E7DAD;metaEdit=1;points=[[0.5,0,0],[1,0.25,0],[1,0.5,0],[1,0.75,0],[0.5,1,0],[0,0.75,0],[0,0.5,0],[0,0.25,0]];resizable=0;" parent="CRoKaNGZ9nIs0wApv7u6-1" vertex="1">
            <mxGeometry x="1370" y="950" width="240" height="120" as="geometry" />
          </mxCell>
        </object>
        <object placeholders="1" c4Name="Меню" c4Type="ContainerScopeBoundary" c4Application="Микросервис" label="&lt;font style=&quot;font-size: 16px&quot;&gt;&lt;b&gt;&lt;div style=&quot;text-align: left&quot;&gt;%c4Name%&lt;/div&gt;&lt;/b&gt;&lt;/font&gt;&lt;div style=&quot;text-align: left&quot;&gt;[%c4Application%]&lt;/div&gt;" id="nXjiOFzCeSzCIaUZXeVF-52">
          <mxCell style="rounded=1;fontSize=11;whiteSpace=wrap;html=1;dashed=1;arcSize=20;fillColor=none;strokeColor=#666666;fontColor=#333333;labelBackgroundColor=none;align=left;verticalAlign=bottom;labelBorderColor=none;spacingTop=0;spacing=10;dashPattern=8 4;metaEdit=1;rotatable=0;perimeter=rectanglePerimeter;noLabel=0;labelPadding=0;allowArrows=0;connectable=0;expand=0;recursiveResize=0;editable=1;pointerEvents=0;absoluteArcSize=1;points=[[0.25,0,0],[0.5,0,0],[0.75,0,0],[1,0.25,0],[1,0.5,0],[1,0.75,0],[0.75,1,0],[0.5,1,0],[0.25,1,0],[0,0.75,0],[0,0.5,0],[0,0.25,0]];" parent="CRoKaNGZ9nIs0wApv7u6-1" vertex="1">
            <mxGeometry x="1340" y="760" width="300" height="360" as="geometry" />
          </mxCell>
        </object>
        <mxCell id="nXjiOFzCeSzCIaUZXeVF-57" value="" style="edgeStyle=orthogonalEdgeStyle;rounded=0;orthogonalLoop=1;jettySize=auto;html=1;" parent="CRoKaNGZ9nIs0wApv7u6-1" edge="1">
          <mxGeometry relative="1" as="geometry">
            <mxPoint x="1830" y="910" as="sourcePoint" />
            <mxPoint x="1830" y="950" as="targetPoint" />
          </mxGeometry>
        </mxCell>
        <mxCell id="nXjiOFzCeSzCIaUZXeVF-65" value="" style="edgeStyle=orthogonalEdgeStyle;rounded=0;orthogonalLoop=1;jettySize=auto;html=1;" parent="CRoKaNGZ9nIs0wApv7u6-1" source="nXjiOFzCeSzCIaUZXeVF-66" target="nXjiOFzCeSzCIaUZXeVF-67" edge="1">
          <mxGeometry relative="1" as="geometry" />
        </mxCell>
        <object placeholders="1" c4Name="Actions service" c4Type="Container" c4Technology="Go Kit" c4Description="Акции" label="&lt;font style=&quot;font-size: 16px&quot;&gt;&lt;b&gt;%c4Name%&lt;/b&gt;&lt;/font&gt;&lt;div&gt;[%c4Type%: %c4Technology%]&lt;/div&gt;&lt;br&gt;&lt;div&gt;&lt;font style=&quot;font-size: 11px&quot;&gt;&lt;font color=&quot;#E6E6E6&quot;&gt;%c4Description%&lt;/font&gt;&lt;/div&gt;" id="nXjiOFzCeSzCIaUZXeVF-66">
          <mxCell style="rounded=1;whiteSpace=wrap;html=1;fontSize=11;labelBackgroundColor=none;fillColor=#23A2D9;fontColor=#ffffff;align=center;arcSize=10;strokeColor=#0E7DAD;metaEdit=1;resizable=0;points=[[0.25,0,0],[0.5,0,0],[0.75,0,0],[1,0.25,0],[1,0.5,0],[1,0.75,0],[0.75,1,0],[0.5,1,0],[0.25,1,0],[0,0.75,0],[0,0.5,0],[0,0.25,0]];" parent="CRoKaNGZ9nIs0wApv7u6-1" vertex="1">
            <mxGeometry x="1710" y="790" width="240" height="120" as="geometry" />
          </mxCell>
        </object>
        <object placeholders="1" c4Type="Actions database" c4Container="Container" c4Technology="Mongo DB" c4Description="Хранение данных акционных предложений" label="&lt;font style=&quot;font-size: 16px&quot;&gt;&lt;b&gt;%c4Type%&lt;/b&gt;&lt;/font&gt;&lt;div&gt;[%c4Container%:&amp;nbsp;%c4Technology%]&lt;/div&gt;&lt;br&gt;&lt;div&gt;&lt;font style=&quot;font-size: 11px&quot;&gt;&lt;font color=&quot;#E6E6E6&quot;&gt;%c4Description%&lt;/font&gt;&lt;/div&gt;" id="nXjiOFzCeSzCIaUZXeVF-67">
          <mxCell style="shape=cylinder3;size=15;whiteSpace=wrap;html=1;boundedLbl=1;rounded=0;labelBackgroundColor=none;fillColor=#23A2D9;fontSize=12;fontColor=#ffffff;align=center;strokeColor=#0E7DAD;metaEdit=1;points=[[0.5,0,0],[1,0.25,0],[1,0.5,0],[1,0.75,0],[0.5,1,0],[0,0.75,0],[0,0.5,0],[0,0.25,0]];resizable=0;" parent="CRoKaNGZ9nIs0wApv7u6-1" vertex="1">
            <mxGeometry x="1710" y="950" width="240" height="120" as="geometry" />
          </mxCell>
        </object>
        <object placeholders="1" c4Name="Акции" c4Type="ContainerScopeBoundary" c4Application="Микросервис" label="&lt;font style=&quot;font-size: 16px&quot;&gt;&lt;b&gt;&lt;div style=&quot;text-align: left&quot;&gt;%c4Name%&lt;/div&gt;&lt;/b&gt;&lt;/font&gt;&lt;div style=&quot;text-align: left&quot;&gt;[%c4Application%]&lt;/div&gt;" id="nXjiOFzCeSzCIaUZXeVF-68">
          <mxCell style="rounded=1;fontSize=11;whiteSpace=wrap;html=1;dashed=1;arcSize=20;fillColor=none;strokeColor=#666666;fontColor=#333333;labelBackgroundColor=none;align=left;verticalAlign=bottom;labelBorderColor=none;spacingTop=0;spacing=10;dashPattern=8 4;metaEdit=1;rotatable=0;perimeter=rectanglePerimeter;noLabel=0;labelPadding=0;allowArrows=0;connectable=0;expand=0;recursiveResize=0;editable=1;pointerEvents=0;absoluteArcSize=1;points=[[0.25,0,0],[0.5,0,0],[0.75,0,0],[1,0.25,0],[1,0.5,0],[1,0.75,0],[0.75,1,0],[0.5,1,0],[0.25,1,0],[0,0.75,0],[0,0.5,0],[0,0.25,0]];" parent="CRoKaNGZ9nIs0wApv7u6-1" vertex="1">
            <mxGeometry x="1680" y="760" width="300" height="360" as="geometry" />
          </mxCell>
        </object>
        <mxCell id="HPRBRbmrhmFyrZqo4h2j-46" style="edgeStyle=orthogonalEdgeStyle;rounded=0;orthogonalLoop=1;jettySize=auto;html=1;" parent="CRoKaNGZ9nIs0wApv7u6-1" source="nXjiOFzCeSzCIaUZXeVF-70" target="HPRBRbmrhmFyrZqo4h2j-0" edge="1">
          <mxGeometry relative="1" as="geometry">
            <Array as="points">
              <mxPoint x="1680" y="1450" />
              <mxPoint x="1680" y="1620" />
              <mxPoint x="210" y="1620" />
              <mxPoint x="210" y="580" />
            </Array>
          </mxGeometry>
        </mxCell>
        <object placeholders="1" c4Name="Jaeger service" c4Type="Container" c4Technology="Jaeger" c4Description="Распределенная трассировка" label="&lt;font style=&quot;font-size: 16px&quot;&gt;&lt;b&gt;%c4Name%&lt;/b&gt;&lt;/font&gt;&lt;div&gt;[%c4Type%: %c4Technology%]&lt;/div&gt;&lt;br&gt;&lt;div&gt;&lt;font style=&quot;font-size: 11px&quot;&gt;&lt;font color=&quot;#E6E6E6&quot;&gt;%c4Description%&lt;/font&gt;&lt;/div&gt;" id="nXjiOFzCeSzCIaUZXeVF-70">
          <mxCell style="rounded=1;whiteSpace=wrap;html=1;fontSize=11;labelBackgroundColor=none;fillColor=#23A2D9;fontColor=#ffffff;align=center;arcSize=10;strokeColor=#0E7DAD;metaEdit=1;resizable=0;points=[[0.25,0,0],[0.5,0,0],[0.75,0,0],[1,0.25,0],[1,0.5,0],[1,0.75,0],[0.75,1,0],[0.5,1,0],[0.25,1,0],[0,0.75,0],[0,0.5,0],[0,0.25,0]];" parent="CRoKaNGZ9nIs0wApv7u6-1" vertex="1">
            <mxGeometry x="1360" y="1390" width="240" height="120" as="geometry" />
          </mxCell>
        </object>
        <object placeholders="1" c4Name="Распределенная трассировка" c4Type="ContainerScopeBoundary" c4Application="Микросервис" label="&lt;font style=&quot;font-size: 16px&quot;&gt;&lt;b&gt;&lt;div style=&quot;text-align: left&quot;&gt;%c4Name%&lt;/div&gt;&lt;/b&gt;&lt;/font&gt;&lt;div style=&quot;text-align: left&quot;&gt;[%c4Application%]&lt;/div&gt;" id="nXjiOFzCeSzCIaUZXeVF-72">
          <mxCell style="rounded=1;fontSize=11;whiteSpace=wrap;html=1;dashed=1;arcSize=20;fillColor=none;strokeColor=#666666;fontColor=#333333;labelBackgroundColor=none;align=left;verticalAlign=bottom;labelBorderColor=none;spacingTop=0;spacing=10;dashPattern=8 4;metaEdit=1;rotatable=0;perimeter=rectanglePerimeter;noLabel=0;labelPadding=0;allowArrows=0;connectable=0;expand=0;recursiveResize=0;editable=1;pointerEvents=0;absoluteArcSize=1;points=[[0.25,0,0],[0.5,0,0],[0.75,0,0],[1,0.25,0],[1,0.5,0],[1,0.75,0],[0.75,1,0],[0.5,1,0],[0.25,1,0],[0,0.75,0],[0,0.5,0],[0,0.25,0]];" parent="CRoKaNGZ9nIs0wApv7u6-1" vertex="1">
            <mxGeometry x="1330" y="1360" width="300" height="210" as="geometry" />
          </mxCell>
        </object>
        <mxCell id="HPRBRbmrhmFyrZqo4h2j-47" value="Логи, метрики, &lt;br&gt;трейсы" style="edgeStyle=orthogonalEdgeStyle;rounded=0;orthogonalLoop=1;jettySize=auto;html=1;entryX=0;entryY=0.5;entryDx=0;entryDy=0;entryPerimeter=0;" parent="CRoKaNGZ9nIs0wApv7u6-1" source="HPRBRbmrhmFyrZqo4h2j-0" target="HPRBRbmrhmFyrZqo4h2j-25" edge="1">
          <mxGeometry x="0.1111" y="-20" relative="1" as="geometry">
            <mxPoint as="offset" />
          </mxGeometry>
        </mxCell>
        <object placeholders="1" c4Name="Apache Kafka" c4Type="Software System" c4Description="Yandex Cloud Managed Service" label="&lt;font style=&quot;font-size: 16px&quot;&gt;&lt;b&gt;%c4Name%&lt;/b&gt;&lt;/font&gt;&lt;div&gt;[%c4Type%]&lt;/div&gt;&lt;br&gt;&lt;div&gt;&lt;font style=&quot;font-size: 11px&quot;&gt;&lt;font color=&quot;#cccccc&quot;&gt;%c4Description%&lt;/font&gt;&lt;/div&gt;" id="HPRBRbmrhmFyrZqo4h2j-0">
          <mxCell style="rounded=1;whiteSpace=wrap;html=1;labelBackgroundColor=none;fillColor=#8C8496;fontColor=#ffffff;align=center;arcSize=10;strokeColor=#736782;metaEdit=1;resizable=0;points=[[0.25,0,0],[0.5,0,0],[0.75,0,0],[1,0.25,0],[1,0.5,0],[1,0.75,0],[0.75,1,0],[0.5,1,0],[0.25,1,0],[0,0.75,0],[0,0.5,0],[0,0.25,0]];" parent="CRoKaNGZ9nIs0wApv7u6-1" vertex="1">
            <mxGeometry x="360" y="520" width="240" height="120" as="geometry" />
          </mxCell>
        </object>
        <object placeholders="1" c4Name="OpenSearch" c4Type="Software System" c4Description="Yandex Cloud Managed Service" label="&lt;font style=&quot;font-size: 16px&quot;&gt;&lt;b&gt;%c4Name%&lt;/b&gt;&lt;/font&gt;&lt;div&gt;[%c4Type%]&lt;/div&gt;&lt;br&gt;&lt;div&gt;&lt;font style=&quot;font-size: 11px&quot;&gt;&lt;font color=&quot;#cccccc&quot;&gt;%c4Description%&lt;/font&gt;&lt;/div&gt;" id="HPRBRbmrhmFyrZqo4h2j-25">
          <mxCell style="rounded=1;whiteSpace=wrap;html=1;labelBackgroundColor=none;fillColor=#8C8496;fontColor=#ffffff;align=center;arcSize=10;strokeColor=#736782;metaEdit=1;resizable=0;points=[[0.25,0,0],[0.5,0,0],[0.75,0,0],[1,0.25,0],[1,0.5,0],[1,0.75,0],[0.75,1,0],[0.5,1,0],[0.25,1,0],[0,0.75,0],[0,0.5,0],[0,0.25,0]];" parent="CRoKaNGZ9nIs0wApv7u6-1" vertex="1">
            <mxGeometry x="690" y="520" width="240" height="120" as="geometry" />
          </mxCell>
        </object>
        <object placeholders="1" c4Name="Backend" c4Type="SystemScopeBoundary" c4Application="Backend системы" label="&lt;font style=&quot;font-size: 16px&quot;&gt;&lt;b&gt;&lt;div style=&quot;text-align: left&quot;&gt;%c4Name%&lt;/div&gt;&lt;/b&gt;&lt;/font&gt;&lt;div style=&quot;text-align: left&quot;&gt;[%c4Application%]&lt;/div&gt;" id="HPRBRbmrhmFyrZqo4h2j-50">
          <mxCell style="rounded=1;fontSize=11;whiteSpace=wrap;html=1;dashed=1;arcSize=20;fillColor=none;strokeColor=#666666;fontColor=#333333;labelBackgroundColor=none;align=left;verticalAlign=bottom;labelBorderColor=none;spacingTop=0;spacing=10;dashPattern=8 4;metaEdit=1;rotatable=0;perimeter=rectanglePerimeter;noLabel=0;labelPadding=0;allowArrows=0;connectable=0;expand=0;recursiveResize=0;editable=1;pointerEvents=0;absoluteArcSize=1;points=[[0.25,0,0],[0.5,0,0],[0.75,0,0],[1,0.25,0],[1,0.5,0],[1,0.75,0],[0.75,1,0],[0.5,1,0],[0.25,1,0],[0,0.75,0],[0,0.5,0],[0,0.25,0]];" parent="CRoKaNGZ9nIs0wApv7u6-1" vertex="1">
            <mxGeometry x="160" y="670" width="1890" height="1000" as="geometry" />
          </mxCell>
        </object>
        <object placeholders="1" c4Name="SMS Gateway" c4Type="Software System" c4Description="SMS-шлюз" label="&lt;font style=&quot;font-size: 16px&quot;&gt;&lt;b&gt;%c4Name%&lt;/b&gt;&lt;/font&gt;&lt;div&gt;[%c4Type%]&lt;/div&gt;&lt;br&gt;&lt;div&gt;&lt;font style=&quot;font-size: 11px&quot;&gt;&lt;font color=&quot;#cccccc&quot;&gt;%c4Description%&lt;/font&gt;&lt;/div&gt;" id="HPRBRbmrhmFyrZqo4h2j-54">
          <mxCell style="rounded=1;whiteSpace=wrap;html=1;labelBackgroundColor=none;fillColor=#8C8496;fontColor=#ffffff;align=center;arcSize=10;strokeColor=#736782;metaEdit=1;resizable=0;points=[[0.25,0,0],[0.5,0,0],[0.75,0,0],[1,0.25,0],[1,0.5,0],[1,0.75,0],[0.75,1,0],[0.5,1,0],[0.25,1,0],[0,0.75,0],[0,0.5,0],[0,0.25,0]];" parent="CRoKaNGZ9nIs0wApv7u6-1" vertex="1">
            <mxGeometry x="1030" y="1720" width="240" height="120" as="geometry" />
          </mxCell>
        </object>
        <object placeholders="1" c4Name="Bank processing" c4Type="Software System" c4Description="Банковский процессинг" label="&lt;font style=&quot;font-size: 16px&quot;&gt;&lt;b&gt;%c4Name%&lt;/b&gt;&lt;/font&gt;&lt;div&gt;[%c4Type%]&lt;/div&gt;&lt;br&gt;&lt;div&gt;&lt;font style=&quot;font-size: 11px&quot;&gt;&lt;font color=&quot;#cccccc&quot;&gt;%c4Description%&lt;/font&gt;&lt;/div&gt;" id="FS6hOxFuUdMwuTiDgxPC-3">
          <mxCell style="rounded=1;whiteSpace=wrap;html=1;labelBackgroundColor=none;fillColor=#8C8496;fontColor=#ffffff;align=center;arcSize=10;strokeColor=#736782;metaEdit=1;resizable=0;points=[[0.25,0,0],[0.5,0,0],[0.75,0,0],[1,0.25,0],[1,0.5,0],[1,0.75,0],[0.75,1,0],[0.5,1,0],[0.25,1,0],[0,0.75,0],[0,0.5,0],[0,0.25,0]];" parent="CRoKaNGZ9nIs0wApv7u6-1" vertex="1">
            <mxGeometry x="680" y="1720" width="240" height="120" as="geometry" />
          </mxCell>
        </object>
        <object placeholders="1" c4Name="1С Бухгалтерия" c4Type="Software System" c4Description="Бухгалтерия" label="&lt;font style=&quot;font-size: 16px&quot;&gt;&lt;b&gt;%c4Name%&lt;/b&gt;&lt;/font&gt;&lt;div&gt;[%c4Type%]&lt;/div&gt;&lt;br&gt;&lt;div&gt;&lt;font style=&quot;font-size: 11px&quot;&gt;&lt;font color=&quot;#cccccc&quot;&gt;%c4Description%&lt;/font&gt;&lt;/div&gt;" id="ZRQLyrMhQw_Z_AcvVRX8-1">
          <mxCell style="rounded=1;whiteSpace=wrap;html=1;labelBackgroundColor=none;fillColor=#8C8496;fontColor=#ffffff;align=center;arcSize=10;strokeColor=#736782;metaEdit=1;resizable=0;points=[[0.25,0,0],[0.5,0,0],[0.75,0,0],[1,0.25,0],[1,0.5,0],[1,0.75,0],[0.75,1,0],[0.5,1,0],[0.25,1,0],[0,0.75,0],[0,0.5,0],[0,0.25,0]];" parent="CRoKaNGZ9nIs0wApv7u6-1" vertex="1">
            <mxGeometry x="360" y="1720" width="240" height="120" as="geometry" />
          </mxCell>
        </object>
        <object placeholders="1" c4Name="ОФД сервис" c4Type="Software System" c4Description="Оператор фискальных данных (для онлайн-касс)" label="&lt;font style=&quot;font-size: 16px&quot;&gt;&lt;b&gt;%c4Name%&lt;/b&gt;&lt;/font&gt;&lt;div&gt;[%c4Type%]&lt;/div&gt;&lt;br&gt;&lt;div&gt;&lt;font style=&quot;font-size: 11px&quot;&gt;&lt;font color=&quot;#cccccc&quot;&gt;%c4Description%&lt;/font&gt;&lt;/div&gt;" id="ZRQLyrMhQw_Z_AcvVRX8-4">
          <mxCell style="rounded=1;whiteSpace=wrap;html=1;labelBackgroundColor=none;fillColor=#8C8496;fontColor=#ffffff;align=center;arcSize=10;strokeColor=#736782;metaEdit=1;resizable=0;points=[[0.25,0,0],[0.5,0,0],[0.75,0,0],[1,0.25,0],[1,0.5,0],[1,0.75,0],[0.75,1,0],[0.5,1,0],[0.25,1,0],[0,0.75,0],[0,0.5,0],[0,0.25,0]];" parent="CRoKaNGZ9nIs0wApv7u6-1" vertex="1">
            <mxGeometry x="1610" y="520" width="240" height="120" as="geometry" />
          </mxCell>
        </object>
        <mxCell id="ZRQLyrMhQw_Z_AcvVRX8-9" style="edgeStyle=orthogonalEdgeStyle;rounded=0;orthogonalLoop=1;jettySize=auto;html=1;entryX=0;entryY=0.5;entryDx=0;entryDy=0;entryPerimeter=0;" parent="CRoKaNGZ9nIs0wApv7u6-1" source="ZRQLyrMhQw_Z_AcvVRX8-7" target="ZRQLyrMhQw_Z_AcvVRX8-4" edge="1">
          <mxGeometry relative="1" as="geometry" />
        </mxCell>
        <object placeholders="1" c4Name="АТОЛ" c4Type="Hardware/Periferial" c4Description="Онлайн-касса" label="&lt;font style=&quot;font-size: 16px&quot;&gt;&lt;b&gt;%c4Name%&lt;/b&gt;&lt;/font&gt;&lt;div&gt;[%c4Type%]&lt;/div&gt;&lt;br&gt;&lt;div&gt;&lt;font style=&quot;font-size: 11px&quot;&gt;&lt;font color=&quot;#cccccc&quot;&gt;%c4Description%&lt;/font&gt;&lt;/div&gt;" id="ZRQLyrMhQw_Z_AcvVRX8-7">
          <mxCell style="rounded=1;whiteSpace=wrap;html=1;labelBackgroundColor=none;fillColor=#8C8496;fontColor=#ffffff;align=center;arcSize=10;strokeColor=#736782;metaEdit=1;resizable=0;points=[[0.25,0,0],[0.5,0,0],[0.75,0,0],[1,0.25,0],[1,0.5,0],[1,0.75,0],[0.75,1,0],[0.5,1,0],[0.25,1,0],[0,0.75,0],[0,0.5,0],[0,0.25,0]];" parent="CRoKaNGZ9nIs0wApv7u6-1" vertex="1">
            <mxGeometry x="1320" y="520" width="240" height="120" as="geometry" />
          </mxCell>
        </object>
        <mxCell id="ZRQLyrMhQw_Z_AcvVRX8-14" value="Платежи&lt;br&gt;[RestAPI/HTTPS]" style="text;whiteSpace=wrap;html=1;" parent="CRoKaNGZ9nIs0wApv7u6-1" vertex="1">
          <mxGeometry x="820" y="1670" width="100" height="40" as="geometry" />
        </mxCell>
        <object placeholders="1" c4Name="Keycloak service" c4Type="Container" c4Technology="Keycloak" c4Description="Авторизация пользователей" label="&lt;font style=&quot;font-size: 16px&quot;&gt;&lt;b&gt;%c4Name%&lt;/b&gt;&lt;/font&gt;&lt;div&gt;[%c4Type%: %c4Technology%]&lt;/div&gt;&lt;br&gt;&lt;div&gt;&lt;font style=&quot;font-size: 11px&quot;&gt;&lt;font color=&quot;#E6E6E6&quot;&gt;%c4Description%&lt;/font&gt;&lt;/div&gt;" id="dCxOR9dJm48hW4rspXvm-0">
          <mxCell style="rounded=1;whiteSpace=wrap;html=1;fontSize=11;labelBackgroundColor=none;fillColor=#23A2D9;fontColor=#ffffff;align=center;arcSize=10;strokeColor=#0E7DAD;metaEdit=1;resizable=0;points=[[0.25,0,0],[0.5,0,0],[0.75,0,0],[1,0.25,0],[1,0.5,0],[1,0.75,0],[0.75,1,0],[0.5,1,0],[0.25,1,0],[0,0.75,0],[0,0.5,0],[0,0.25,0]];" parent="CRoKaNGZ9nIs0wApv7u6-1" vertex="1">
            <mxGeometry x="1360" y="1180" width="240" height="120" as="geometry" />
          </mxCell>
        </object>
        <object placeholders="1" c4Name="Авторизация" c4Type="ContainerScopeBoundary" c4Application="Микросервис" label="&lt;font style=&quot;font-size: 16px&quot;&gt;&lt;b&gt;&lt;div style=&quot;text-align: left&quot;&gt;%c4Name%&lt;/div&gt;&lt;/b&gt;&lt;/font&gt;&lt;div style=&quot;text-align: left&quot;&gt;[%c4Application%]&lt;/div&gt;" id="dCxOR9dJm48hW4rspXvm-4">
          <mxCell style="rounded=1;fontSize=11;whiteSpace=wrap;html=1;dashed=1;arcSize=20;fillColor=none;strokeColor=#666666;fontColor=#333333;labelBackgroundColor=none;align=left;verticalAlign=bottom;labelBorderColor=none;spacingTop=0;spacing=10;dashPattern=8 4;metaEdit=1;rotatable=0;perimeter=rectanglePerimeter;noLabel=0;labelPadding=0;allowArrows=0;connectable=0;expand=0;recursiveResize=0;editable=1;pointerEvents=0;absoluteArcSize=1;points=[[0.25,0,0],[0.5,0,0],[0.75,0,0],[1,0.25,0],[1,0.5,0],[1,0.75,0],[0.75,1,0],[0.5,1,0],[0.25,1,0],[0,0.75,0],[0,0.5,0],[0,0.25,0]];" parent="CRoKaNGZ9nIs0wApv7u6-1" vertex="1">
            <mxGeometry x="1330" y="1140" width="300" height="210" as="geometry" />
          </mxCell>
        </object>
        <mxCell id="wJmEjZ8vFyCMn0NHERv8-2" style="edgeStyle=orthogonalEdgeStyle;rounded=0;orthogonalLoop=1;jettySize=auto;html=1;" edge="1" parent="CRoKaNGZ9nIs0wApv7u6-1" target="wJmEjZ8vFyCMn0NHERv8-3">
          <mxGeometry relative="1" as="geometry">
            <Array as="points">
              <mxPoint x="1709.9999999999998" y="1260" />
              <mxPoint x="1709.9999999999998" y="1680" />
              <mxPoint x="1469.9999999999998" y="1680" />
            </Array>
            <mxPoint x="1599.9999999999998" y="1260" as="sourcePoint" />
          </mxGeometry>
        </mxCell>
        <object placeholders="1" c4Name="LDAP-сервер" c4Type="Software System" c4Description="Служба каталогов LDAP" label="&lt;font style=&quot;font-size: 16px&quot;&gt;&lt;b&gt;%c4Name%&lt;/b&gt;&lt;/font&gt;&lt;div&gt;[%c4Type%]&lt;/div&gt;&lt;br&gt;&lt;div&gt;&lt;font style=&quot;font-size: 11px&quot;&gt;&lt;font color=&quot;#cccccc&quot;&gt;%c4Description%&lt;/font&gt;&lt;/div&gt;" id="wJmEjZ8vFyCMn0NHERv8-3">
          <mxCell style="rounded=1;whiteSpace=wrap;html=1;labelBackgroundColor=none;fillColor=#8C8496;fontColor=#ffffff;align=center;arcSize=10;strokeColor=#736782;metaEdit=1;resizable=0;points=[[0.25,0,0],[0.5,0,0],[0.75,0,0],[1,0.25,0],[1,0.5,0],[1,0.75,0],[0.75,1,0],[0.5,1,0],[0.25,1,0],[0,0.75,0],[0,0.5,0],[0,0.25,0]];" vertex="1" parent="CRoKaNGZ9nIs0wApv7u6-1">
            <mxGeometry x="1349.9999999999998" y="1720" width="240" height="120" as="geometry" />
          </mxCell>
        </object>
      </root>
    </mxGraphModel>
  </diagram>
</mxfile>
